<?xml version="1.0"?>
<!-- Generated by SVGo and Plotinum VG -->
<svg width="512pt" height="512pt" viewBox="0 0 512 512"
	xmlns="http://www.w3.org/2000/svg"
	xmlns:xlink="http://www.w3.org/1999/xlink">
<g transform="scale(1, -1) translate(0, -512)">
<path d="M0,0L512,0L512,512L0,512Z" style="fill:#FFFFFF" />
<text x="33.392" y="-3.252" transform="scale(1, -1)"
	style="font-family:Liberation Serif;font-variant:normal;font-weight:normal;font-style:normal;font-size:10px">-25000.00</text>
<text x="252.8" y="-3.252" transform="scale(1, -1)"
	style="font-family:Liberation Serif;font-variant:normal;font-weight:normal;font-style:normal;font-size:10px">25000.00</text>
<text x="470.54" y="-3.252" transform="scale(1, -1)"
	style="font-family:Liberation Serif;font-variant:normal;font-weight:normal;font-style:normal;font-size:10px">75000.00</text>
<path d="M53.807,11.074L53.807,19.074" style="fill:none;stroke:#000000;stroke-width:0.5" />
<path d="M271.55,11.074L271.55,19.074" style="fill:none;stroke:#000000;stroke-width:0.5" />
<path d="M489.29,11.074L489.29,19.074" style="fill:none;stroke:#000000;stroke-width:0.5" />
<path d="M97.355,15.074L97.355,19.074" style="fill:none;stroke:#000000;stroke-width:0.5" />
<path d="M140.9,15.074L140.9,19.074" style="fill:none;stroke:#000000;stroke-width:0.5" />
<path d="M184.45,15.074L184.45,19.074" style="fill:none;stroke:#000000;stroke-width:0.5" />
<path d="M228,15.074L228,19.074" style="fill:none;stroke:#000000;stroke-width:0.5" />
<path d="M315.1,15.074L315.1,19.074" style="fill:none;stroke:#000000;stroke-width:0.5" />
<path d="M358.64,15.074L358.64,19.074" style="fill:none;stroke:#000000;stroke-width:0.5" />
<path d="M402.19,15.074L402.19,19.074" style="fill:none;stroke:#000000;stroke-width:0.5" />
<path d="M445.74,15.074L445.74,19.074" style="fill:none;stroke:#000000;stroke-width:0.5" />
<path d="M36.25,19.074L512,19.074" style="fill:none;stroke:#000000;stroke-width:0.5" />
<text x="15" y="-22.039" transform="scale(1, -1)"
	style="font-family:Liberation Serif;font-variant:normal;font-weight:normal;font-style:normal;font-size:10px">0</text>
<text x="5" y="-181.31" transform="scale(1, -1)"
	style="font-family:Liberation Serif;font-variant:normal;font-weight:normal;font-style:normal;font-size:10px">500</text>
<text x="0" y="-340.57" transform="scale(1, -1)"
	style="font-family:Liberation Serif;font-variant:normal;font-weight:normal;font-style:normal;font-size:10px">1000</text>
<text x="0" y="-499.84" transform="scale(1, -1)"
	style="font-family:Liberation Serif;font-variant:normal;font-weight:normal;font-style:normal;font-size:10px">1500</text>
<path d="M22.5,24.324L30.5,24.324" style="fill:none;stroke:#000000;stroke-width:0.5" />
<path d="M22.5,183.59L30.5,183.59" style="fill:none;stroke:#000000;stroke-width:0.5" />
<path d="M22.5,342.86L30.5,342.86" style="fill:none;stroke:#000000;stroke-width:0.5" />
<path d="M22.5,502.13L30.5,502.13" style="fill:none;stroke:#000000;stroke-width:0.5" />
<path d="M26.5,56.178L30.5,56.178" style="fill:none;stroke:#000000;stroke-width:0.5" />
<path d="M26.5,88.031L30.5,88.031" style="fill:none;stroke:#000000;stroke-width:0.5" />
<path d="M26.5,119.88L30.5,119.88" style="fill:none;stroke:#000000;stroke-width:0.5" />
<path d="M26.5,151.74L30.5,151.74" style="fill:none;stroke:#000000;stroke-width:0.5" />
<path d="M26.5,215.44L30.5,215.44" style="fill:none;stroke:#000000;stroke-width:0.5" />
<path d="M26.5,247.3L30.5,247.3" style="fill:none;stroke:#000000;stroke-width:0.5" />
<path d="M26.5,279.15L30.5,279.15" style="fill:none;stroke:#000000;stroke-width:0.5" />
<path d="M26.5,311L30.5,311" style="fill:none;stroke:#000000;stroke-width:0.5" />
<path d="M26.5,374.71L30.5,374.71" style="fill:none;stroke:#000000;stroke-width:0.5" />
<path d="M26.5,406.57L30.5,406.57" style="fill:none;stroke:#000000;stroke-width:0.5" />
<path d="M26.5,438.42L30.5,438.42" style="fill:none;stroke:#000000;stroke-width:0.5" />
<path d="M26.5,470.27L30.5,470.27" style="fill:none;stroke:#000000;stroke-width:0.5" />
<path d="M30.5,24.324L30.5,512" style="fill:none;stroke:#000000;stroke-width:0.5" />
<path d="M36.25,24.324L60.038,24.324L60.038,25.28L36.25,25.28Z" style="fill:#808080" />
<path d="M36.25,24.324L60.038,24.324L60.038,25.28L36.25,25.28L36.25,24.324" style="fill:none;stroke:#000000" />
<path d="M60.038,24.324L83.825,24.324L83.825,28.147L60.038,28.147Z" style="fill:#808080" />
<path d="M60.038,24.324L83.825,24.324L83.825,28.147L60.038,28.147L60.038,24.324" style="fill:none;stroke:#000000" />
<path d="M83.825,24.324L107.61,24.324L107.61,31.013L83.825,31.013Z" style="fill:#808080" />
<path d="M83.825,24.324L107.61,24.324L107.61,31.013L83.825,31.013L83.825,24.324" style="fill:none;stroke:#000000" />
<path d="M107.61,24.324L131.4,24.324L131.4,47.896L107.61,47.896Z" style="fill:#808080" />
<path d="M107.61,24.324L131.4,24.324L131.4,47.896L107.61,47.896L107.61,24.324" style="fill:none;stroke:#000000" />
<path d="M131.4,24.324L155.19,24.324L155.19,75.29L131.4,75.29Z" style="fill:#808080" />
<path d="M131.4,24.324L155.19,24.324L155.19,75.29L131.4,75.29L131.4,24.324" style="fill:none;stroke:#000000" />
<path d="M155.19,24.324L178.97,24.324L178.97,133.26L155.19,133.26Z" style="fill:#808080" />
<path d="M155.19,24.324L178.97,24.324L178.97,133.26L155.19,133.26L155.19,24.324" style="fill:none;stroke:#000000" />
<path d="M178.97,24.324L202.76,24.324L202.76,196.33L178.97,196.33Z" style="fill:#808080" />
<path d="M178.97,24.324L202.76,24.324L202.76,196.33L178.97,196.33L178.97,24.324" style="fill:none;stroke:#000000" />
<path d="M202.76,24.324L226.55,24.324L226.55,299.54L202.76,299.54Z" style="fill:#808080" />
<path d="M202.76,24.324L226.55,24.324L226.55,299.54L202.76,299.54L202.76,24.324" style="fill:none;stroke:#000000" />
<path d="M226.55,24.324L250.34,24.324L250.34,394.14L226.55,394.14Z" style="fill:#808080" />
<path d="M226.55,24.324L250.34,24.324L250.34,394.14L226.55,394.14L226.55,24.324" style="fill:none;stroke:#000000" />
<path d="M250.34,24.324L274.12,24.324L274.12,454.98L250.34,454.98Z" style="fill:#808080" />
<path d="M250.34,24.324L274.12,24.324L274.12,454.98L250.34,454.98L250.34,24.324" style="fill:none;stroke:#000000" />
<path d="M274.12,24.324L297.91,24.324L297.91,512L274.12,512Z" style="fill:#808080" />
<path d="M274.12,24.324L297.91,24.324L297.91,512L274.12,512L274.12,24.324" style="fill:none;stroke:#000000" />
<path d="M297.91,24.324L321.7,24.324L321.7,430.46L297.91,430.46Z" style="fill:#808080" />
<path d="M297.91,24.324L321.7,24.324L321.7,430.46L297.91,430.46L297.91,24.324" style="fill:none;stroke:#000000" />
<path d="M321.7,24.324L345.49,24.324L345.49,363.56L321.7,363.56Z" style="fill:#808080" />
<path d="M321.7,24.324L345.49,24.324L345.49,363.56L321.7,363.56L321.7,24.324" style="fill:none;stroke:#000000" />
<path d="M345.49,24.324L369.27,24.324L369.27,254.62L345.49,254.62Z" style="fill:#808080" />
<path d="M345.49,24.324L369.27,24.324L369.27,254.62L345.49,254.62L345.49,24.324" style="fill:none;stroke:#000000" />
<path d="M369.27,24.324L393.06,24.324L393.06,165.12L369.27,165.12Z" style="fill:#808080" />
<path d="M369.27,24.324L393.06,24.324L393.06,165.12L369.27,165.12L369.27,24.324" style="fill:none;stroke:#000000" />
<path d="M393.06,24.324L416.85,24.324L416.85,96.631L393.06,96.631Z" style="fill:#808080" />
<path d="M393.06,24.324L416.85,24.324L416.85,96.631L393.06,96.631L393.06,24.324" style="fill:none;stroke:#000000" />
<path d="M416.85,24.324L440.64,24.324L440.64,65.097L416.85,65.097Z" style="fill:#808080" />
<path d="M416.85,24.324L440.64,24.324L440.64,65.097L416.85,65.097L416.85,24.324" style="fill:none;stroke:#000000" />
<path d="M440.64,24.324L464.43,24.324L464.43,40.569L440.64,40.569Z" style="fill:#808080" />
<path d="M440.64,24.324L464.43,24.324L464.43,40.569L440.64,40.569L440.64,24.324" style="fill:none;stroke:#000000" />
<path d="M464.43,24.324L488.21,24.324L488.21,31.332L464.43,31.332Z" style="fill:#808080" />
<path d="M464.43,24.324L488.21,24.324L488.21,31.332L464.43,31.332L464.43,24.324" style="fill:none;stroke:#000000" />
<path d="M488.21,24.324L512,24.324L512,26.554L488.21,26.554Z" style="fill:#808080" />
<path d="M488.21,24.324L512,24.324L512,26.554L488.21,26.554L488.21,24.324" style="fill:none;stroke:#000000" />
</g>
</svg>
